<svg style="display:none">
<symbol id="icon-users" class="w-6 h-6 text-gray-800 dark:text-white" aria-hidden="true" xmlns="http://www.w3.org/2000/svg" width="24" height="24" fill="inherit" viewBox="0 0 24 24">
    <path fill-rule="evenodd" d="M8 4a4 4 0 1 0 0 8 4 4 0 0 0 0-8Zm-2 9a4 4 0 0 0-4 4v1a2 2 0 0 0 2 2h8a2 2 0 0 0 2-2v-1a4 4 0 0 0-4-4H6Zm7.25-2.095c.478-.86.75-1.85.75-2.905a5.973 5.973 0 0 0-.75-2.906 4 4 0 1 1 0 5.811ZM15.466 20c.34-.588.535-1.271.535-2v-1a5.978 5.978 0 0 0-1.528-4H18a4 4 0 0 1 4 4v1a2 2 0 0 1-2 2h-4.535Z" clip-rule="evenodd"/>
  </symbol>
  <symbol id="icon-pages" class="w-6 h-6 text-gray-800 dark:text-white" aria-hidden="true" xmlns="http://www.w3.org/2000/svg" width="24" height="24" fill="inherit" viewBox="0 0 24 24">
    <path fill-rule="evenodd" d="M5 3a2 2 0 0 0-2 2v14a2 2 0 0 0 2 2h11.5c.07 0 .14-.007.207-.021.095.014.193.021.293.021h2a2 2 0 0 0 2-2V7a1 1 0 0 0-1-1h-1a1 1 0 1 0 0 2v11h-2V5a2 2 0 0 0-2-2H5Zm7 4a1 1 0 0 1 1-1h.5a1 1 0 1 1 0 2H13a1 1 0 0 1-1-1Zm0 3a1 1 0 0 1 1-1h.5a1 1 0 1 1 0 2H13a1 1 0 0 1-1-1Zm-6 4a1 1 0 0 1 1-1h6a1 1 0 1 1 0 2H7a1 1 0 0 1-1-1Zm0 3a1 1 0 0 1 1-1h6a1 1 0 1 1 0 2H7a1 1 0 0 1-1-1ZM7 6a1 1 0 0 0-1 1v3a1 1 0 0 0 1 1h3a1 1 0 0 0 1-1V7a1 1 0 0 0-1-1H7Zm1 3V8h1v1H8Z" clip-rule="evenodd"/>
  </symbol>
  
</svg>