<svg style="display:none">
  <symbol id="icon-users" class="w-6 h-6 text-gray-800 " aria-hidden="true"
    xmlns="http://www.w3.org/2000/svg" width="24" height="24" fill="currentColor"
    viewBox="0 0 24 24">
    <path fill-rule="evenodd"
      d="M8 4a4 4 0 1 0 0 8 4 4 0 0 0 0-8Zm-2 9a4 4 0 0 0-4 4v1a2 2 0 0 0 2 2h8a2 2 0 0 0 2-2v-1a4 4 0 0 0-4-4H6Zm7.25-2.095c.478-.86.75-1.85.75-2.905a5.973 5.973 0 0 0-.75-2.906 4 4 0 1 1 0 5.811ZM15.466 20c.34-.588.535-1.271.535-2v-1a5.978 5.978 0 0 0-1.528-4H18a4 4 0 0 1 4 4v1a2 2 0 0 1-2 2h-4.535Z"
      clip-rule="evenodd" />
  </symbol>
  <symbol id="icon-pages" class="w-6 h-6 text-gray-800 " aria-hidden="true"
    xmlns="http://www.w3.org/2000/svg" width="24" height="24" fill="currentColor"
    viewBox="0 0 24 24">
    <path fill-rule="evenodd"
      d="M5 3a2 2 0 0 0-2 2v14a2 2 0 0 0 2 2h11.5c.07 0 .14-.007.207-.021.095.014.193.021.293.021h2a2 2 0 0 0 2-2V7a1 1 0 0 0-1-1h-1a1 1 0 1 0 0 2v11h-2V5a2 2 0 0 0-2-2H5Zm7 4a1 1 0 0 1 1-1h.5a1 1 0 1 1 0 2H13a1 1 0 0 1-1-1Zm0 3a1 1 0 0 1 1-1h.5a1 1 0 1 1 0 2H13a1 1 0 0 1-1-1Zm-6 4a1 1 0 0 1 1-1h6a1 1 0 1 1 0 2H7a1 1 0 0 1-1-1Zm0 3a1 1 0 0 1 1-1h6a1 1 0 1 1 0 2H7a1 1 0 0 1-1-1ZM7 6a1 1 0 0 0-1 1v3a1 1 0 0 0 1 1h3a1 1 0 0 0 1-1V7a1 1 0 0 0-1-1H7Zm1 3V8h1v1H8Z"
      clip-rule="evenodd" />
  </symbol>
  <symbol id="icon-info" class="w-6 h-6 text-gray-800 " aria-hidden="true"
    xmlns="http://www.w3.org/2000/svg" width="24" height="24" fill="currentColor"
    viewBox="0 0 24 24">
    <path fill-rule="evenodd"
      d="M2 12C2 6.477 6.477 2 12 2s10 4.477 10 10-4.477 10-10 10S2 17.523 2 12Zm9.408-5.5a1 1 0 1 0 0 2h.01a1 1 0 1 0 0-2h-.01ZM10 10a1 1 0 1 0 0 2h1v3h-1a1 1 0 1 0 0 2h4a1 1 0 1 0 0-2h-1v-4a1 1 0 0 0-1-1h-2Z"
      clip-rule="evenodd" />
  </symbol>
  <symbol id="icon-help" aria-hidden="true"
    class="w-6 h-6 text-gray-800 "
    fill="currentColor" viewBox="0 0 20 20" xmlns="http://www.w3.org/2000/svg">
    <path fill-rule="evenodd"
      d="M18 10a8 8 0 11-16 0 8 8 0 0116 0zm-2 0c0 .993-.241 1.929-.668 2.754l-1.524-1.525a3.997 3.997 0 00.078-2.183l1.562-1.562C15.802 8.249 16 9.1 16 10zm-5.165 3.913l1.58 1.58A5.98 5.98 0 0110 16a5.976 5.976 0 01-2.516-.552l1.562-1.562a4.006 4.006 0 001.789.027zm-4.677-2.796a4.002 4.002 0 01-.041-2.08l-.08.08-1.53-1.533A5.98 5.98 0 004 10c0 .954.223 1.856.619 2.657l1.54-1.54zm1.088-6.45A5.974 5.974 0 0110 4c.954 0 1.856.223 2.657.619l-1.54 1.54a4.002 4.002 0 00-2.346.033L7.246 4.668zM12 10a2 2 0 11-4 0 2 2 0 014 0z"
      clip-rule="evenodd"></path>
  </symbol>
  <symbol id="icon-lessons" class="w-6 h-6 text-gray-800 " aria-hidden="true"
  xmlns="http://www.w3.org/2000/svg" width="24" height="24" fill="currentColor"
  viewBox="0 0 24 24">
  <path d="M12 2a10 10 0 1 0 10 10A10.012 10.012 0 0 0 12 2zm1 15h-2v-2h2zm0-4h-2V7h2z"/>
</symbol>

<symbol id="icon-contacts" class="w-6 h-6 text-gray-800 " aria-hidden="true"
  xmlns="http://www.w3.org/2000/svg" width="24" height="24" fill="currentColor"
  viewBox="0 0 24 24">
  <path d="M12 12c2.21 0 4-1.79 4-4S14.21 4 12 4s-4 1.79-4 4s1.79 4 4 4zm0 2c-3.31 0-10 1.67-10 5v1h20v-1c0-3.33-6.69-5-10-5z"/>
</symbol>

<symbol id="icon-home" class="w-6 h-6 text-gray-800 " aria-hidden="true"
  xmlns="http://www.w3.org/2000/svg" width="24" height="24" fill="currentColor"
  viewBox="0 0 24 24">
  <path d="M12 3l9 9h-3v9H6v-9H3l9-9z"/>
</symbol>
<symbol id="icon-exit" 
  aria-hidden="true" 
  class="w-6 h-6 text-gray-800 "  
  width="24"
  height="24"
  stroke="currentColor" 
  viewBox="0 0 24 24" 
  xmlns="http://www.w3.org/2000/svg">
  <path style="fill:none" stroke-linecap="round" stroke-linejoin="round" stroke-width="2" d="M17 16l4-4m0 0l-4-4m4 4H7m6 4v1a3 3 0 01-3 3H6a3 3 0 01-3-3V7a3 3 0 013-3h4a3 3 0 013 3v1"></path>
</symbol>
<symbol 
  id="icon-left" 
  className="w-6 h-6 text-gray-800 " 
  aria-hidden="true" 
  xmlns="http://www.w3.org/2000/svg" 
  width="24" 
  height="24" 
  viewBox="0 0 24 24">
  <path stroke="currentColor" stroke-linecap="round" stroke-linejoin="round" stroke-width="2" d="M5 12h14M5 12l4-4m-4 4 4 4"/>
</symbol>
<symbol 
  id="icon-generate"
  className="w-6 h-6 text-gray-800" 
  aria-hidden="true" 
  xmlns="http://www.w3.org/2000/svg" 
  width="24" 
  height="24" 
  fill="currentColor" 
  viewBox="0 0 24 24">
  <path fill-rule="currentColor" d="M17.44 3a1 1 0 0 1 .707.293l2.56 2.56a1 1 0 0 1 0 1.414L18.194 9.78 14.22 5.806l2.513-2.513A1 1 0 0 1 17.44 3Zm-4.634 4.22-9.513 9.513a1 1 0 0 0 0 1.414l2.56 2.56a1 1 0 0 0 1.414 0l9.513-9.513-3.974-3.974ZM6 6a1 1 0 0 1 1 1v1h1a1 1 0 0 1 0 2H7v1a1 1 0 1 1-2 0v-1H4a1 1 0 0 1 0-2h1V7a1 1 0 0 1 1-1Zm9 9a1 1 0 0 1 1 1v1h1a1 1 0 1 1 0 2h-1v1a1 1 0 1 1-2 0v-1h-1a1 1 0 1 1 0-2h1v-1a1 1 0 0 1 1-1Z" clip-rule="currentColor"/>
  <path d="M19 13h-2v2h2v-2ZM13 3h-2v2h2V3Zm-2 2H9v2h2V5ZM9 3H7v2h2V3Zm12 8h-2v2h2v-2Zm0 4h-2v2h2v-2Z"/>
</symbol>


</svg>